PathFileType	4	(X/Y/Z)	RBDS011\RBDS011runT35.trc
DataRate	CameraRate	NumFrames	NumMarkers	Units	OrigDataRate	OrigDataStartFrame	OrigNumFrames
150.000000	150.000000	5	33	mm	150.000000	2812	4500
Frame#	Time	L.ASIS			L.Heel.Bottom			L.Heel.Lateral			L.Heel.Top			L.Iliac.Crest			L.MT1			L.MT5			L.PSIS			L.Shank.Bottom.Lateral			L.Shank.Bottom.Medial			L.Shank.Top.Lateral			L.Shank.Top.Medial			L.Thigh.Bottom.Lateral			L.Thigh.Bottom.Medial			L.Thigh.Top.Lateral			L.Thigh.Top.Medial			R.ASIS			R.ASY			R.Heel.Bottom			R.Heel.Lateral			R.Heel.Top			R.Iliac.Crest			R.MT1			R.MT5			R.PSIS			R.Shank.Bottom.Lateral			R.Shank.Bottom.Medial			R.Shank.Top.Lateral			R.Shank.Top.Medial			R.Thigh.Bottom.Lateral			R.Thigh.Bottom.Medial			R.Thigh.Top.Lateral			R.Thigh.Top.Medial			
		X1	Y1	Z1	X2	Y2	Z2	X3	Y3	Z3	X4	Y4	Z4	X5	Y5	Z5	X6	Y6	Z6	X7	Y7	Z7	X8	Y8	Z8	X9	Y9	Z9	X10	Y10	Z10	X11	Y11	Z11	X12	Y12	Z12	X13	Y13	Z13	X14	Y14	Z14	X15	Y15	Z15	X16	Y16	Z16	X17	Y17	Z17	X18	Y18	Z18	X19	Y19	Z19	X20	Y20	Z20	X21	Y21	Z21	X22	Y22	Z22	X23	Y23	Z23	X24	Y24	Z24	X25	Y25	Z25	X26	Y26	Z26	X27	Y27	Z27	X28	Y28	Z28	X29	Y29	Z29	X30	Y30	Z30	X31	Y31	Z31	X32	Y32	Z32	X33	Y33	Z33	

2813	18.74666666666667	2336.379008837997	973.0240899107757	887.0256504712288	2293.179861161335	32.21593658902018	990.5361170121031	2316.361229784764	43.54574062104655	949.8534457823177	2305.775358381079	80.07089974206943	990.0733385596542	2270.87134201241	1041.353318875494	860.8454297459557	2522.546920074983	41.93429201085102	1023.665528915663	2487.951757119055	37.04692377562753	909.5008358868392	2178.196953312053	999.1801077819708	981.0307119698188	2373.419159745652	165.0830879983285	921.914427260658	2336.327103306141	177.5468799564906	960.5580668918496	2374.765392064248	242.596231958775	900.0344300134267	2340.459276634696	255.4810377406043	939.3517287706983	2388.130380050261	605.3429559809992	850.0406049810995	2336.963598763391	577.178698963584	893.0174395011391	2325.946417373268	696.0060231355631	838.737063060744	2277.872874299385	669.7990761683697	879.0694913979358	2363.756011070638	948.6745144433885	1130.796311039079	1842.435999832317	370.2766099914076	1100.913509106557	1809.972409356745	559.9405629773684	1086.089473551224	1823.446379542061	534.4590071552528	1129.707792259544	1857.227132576276	541.7080507156109	1089.364574203661	2332.881185652678	1013.28383824055	1169.796901913601	1783.176729359384	335.6309673104212	1051.112470375805	1776.372463725962	366.2690132293694	1165.401826795228	2192.570159248824	995.3235065749602	1084.240357506313	1927.093218357644	489.1378390606156	1144.803307444236	1935.576060457997	519.316235865136	1103.063898756714	2011.012502164858	488.2512287664507	1157.756421483419	2014.984509327633	522.6380616071464	1117.534003099054	2266.547462029826	558.3171488449484	1179.382006211857	2214.905448622574	560.7854945147305	1127.060140528479	2255.345510939761	666.4323843115546	1192.913825799973	2204.265435070391	669.8735921180715	1146.640272728803	
2814	18.75333333333333	2334.263427525167	968.0119289620681	885.9111796484841	2270.363588042168	33.42829604215755	991.5071185368121	2293.77516187648	45.38016133232161	951.0973859430858	2283.883252209886	81.23349741759294	992.1668038399285	2269.230436088556	1033.936609975827	860.0031770700234	2500.330427488302	39.51135772964086	1025.204396440702	2465.254529733348	37.33771627457217	910.6709541125592	2176.57810136454	994.1629052397491	981.3258400003461	2357.185699032656	164.7004429103993	923.9344229174295	2319.968290987217	179.408501761376	961.8224250226547	2362.690626908245	241.9054366785758	901.2845078125608	2328.43226317371	256.9106818840838	939.9857998200172	2385.626992136775	600.9142922734779	849.5348773840783	2335.32543770276	573.199223173014	893.8184082164786	2323.258330981773	691.4445107350656	838.195321383984	2275.91940846357	665.6097916136389	879.6461360508039	2363.190805396201	943.4696290097982	1129.46434490404	1856.982934793448	369.9594375489552	1100.956231905764	1824.461291985443	559.5649559148226	1085.936169504127	1837.995564391527	534.2286333681167	1129.638940793216	1871.718700004673	541.3206418751432	1089.175513982132	2332.234890784545	1006.580188568132	1169.306448529106	1797.742715939879	335.1892152042838	1051.297646592573	1791.215280957474	365.8864410406386	1165.402370045923	2191.347806244417	990.0787946776267	1084.063547944135	1941.824511777598	488.0600961520601	1145.069304336784	1950.92405148715	518.1911731798692	1103.38913669009	2025.76498024155	486.0864986780971	1158.354572560794	2030.341975390197	520.4763950375929	1118.185924068886	2277.136675836185	553.4559044974686	1180.997336564899	2224.851189955238	553.7541005140113	1129.325160442842	2262.426362725229	661.216831514395	1193.952314409723	2210.886410092616	662.5749267998182	1148.096420089901	
2815	18.76	2332.013519266074	963.3655061615312	884.7473774762849	2247.502748096631	34.66629039991661	992.3858711200272	2271.093421809446	47.20568412193376	952.2052335428469	2261.67679611124	82.42189122326157	993.986380006306	2267.27420246203	1026.781224654407	859.128359995863	2477.792335459646	38.27533944337818	1026.38821730545	2442.362811369253	38.08670321727324	911.6678618683071	2174.866909895507	989.6165834354907	981.6156807391376	2340.282328462071	164.670147492623	925.6982152665639	2303.084078060034	181.4952752536549	962.9030360951891	2349.766513991643	241.3871537644896	902.4366692222391	2315.664082716346	258.4009439084824	940.5747196389406	2382.224908462157	596.4878499630641	849.2937613745808	2332.601995565839	569.3909924943756	894.7628691872416	2320.011447489521	687.0979318480531	837.8504792731559	2273.251426064758	661.8125719824149	880.3515069900395	2362.400876197916	938.5523701201337	1128.199622842603	1872.415663821646	368.1890962541665	1100.944867968326	1838.700437142722	557.5103936600613	1086.051507353906	1852.47955997866	532.3184556755206	1129.735681539083	1886.075650872893	539.5199343720615	1089.213241397203	2330.833675661454	999.9342536293159	1168.941750602491	1813.418249608197	333.024645812542	1051.33335896704	1807.009813710306	363.5358537310541	1165.308925423002	2189.921791315854	985.2491593709292	1083.7559379452	1956.821664712234	485.9443082573272	1145.323197457219	1966.322829477059	516.1475280344987	1103.768078181383	2040.759606030965	483.383901098406	1158.961947629766	2045.733101948468	517.8397971791435	1118.869321729347	2288.367613875372	549.4546847111144	1182.609390241523	2235.364337907692	547.4507219288249	1131.767760127568	2270.006724772346	656.7090421165348	1195.004853681381	2217.936369073946	655.8569971123746	1149.768720650087	
2816	18.76666666666667	2329.712448083883	959.1895861184518	883.5549194720065	2224.608878867736	35.80986892768863	993.1223160841888	2248.332505150331	48.86534913768802	953.122187744203	2239.210635922191	83.51569624262625	995.4682770195056	2264.972614741398	1020.121806499379	858.2621869017745	2455.005301154554	37.89467777886466	1027.186346612179	2419.326932773396	39.02296089160636	912.4317922823255	2173.122536359792	985.6214686099817	981.9042502269745	2322.689614735806	164.7981204630184	927.1321651406442	2285.643895425344	183.5711739599426	963.7342770312398	2335.90412311464	240.8758978538082	903.4243901544452	2302.051225415399	259.7451481540499	941.0543995731041	2377.837117890756	592.0664664288623	849.3102437978347	2328.609191426041	565.7482054808085	895.7214266376864	2316.19024171902	683.0164215315415	837.7046647414307	2269.780999807326	658.4550283120586	881.0942617255796	2361.395629500415	934.0493677022068	1127.060449750976	1888.674415698523	364.983966323201	1100.877866803331	1852.594508533955	553.7710042474771	1086.433923408377	1866.801848275399	528.7228887579537	1130.00428939213	1900.197507776912	536.3060895948455	1089.483653169111	2328.667031005223	993.5336799005688	1168.718622904831	1830.153608173307	329.1513276451434	1051.217752872417	1823.68514237454	359.2316404160604	1165.128186263056	2188.343456969028	980.9239152444185	1083.343907012795	1971.997685277863	482.8313393286607	1145.56247950096	1981.659725461536	513.2317849140306	1104.201484149003	2055.913510305245	480.2204181452406	1159.562120450943	2061.051363818355	514.8086456673174	1119.566853704988	2300.16948389559	546.4582507536105	1184.169219538846	2246.450272822665	542.0281322642702	1134.275643827233	2278.02404652698	653.0388237533091	1196.019149347918	2225.407173841911	649.853401555794	1151.5645856001	
2817	18.77333333333333	2327.452902432389	955.5609418757419	882.372979850916	2201.663376433616	36.78508910605296	993.694814657116	2225.48374579852	50.2658111590959	953.8296546791499	2216.518434372009	84.44006621307257	996.6015093714124	2262.350284971139	1014.188656441056	857.4439665099462	2432.013726806945	38.04040325785793	1027.622310078874	2396.167610974661	39.93498170433897	912.949043592355	2171.404692360627	982.2440545579705	982.1803246840414	2304.393613428091	164.9283843106647	928.219374365213	2267.618229222356	185.4547252538952	964.3040089337086	2321.041539689304	240.2498388532567	904.2216445196211	2287.515738539741	260.7960613560402	941.4000404412423	2372.419071813436	587.6772061854369	849.5418227458597	2323.227373706402	562.2787529579099	896.5469131541477	2311.794757624851	679.2528083852849	837.7316164736118	2265.454280594885	655.5764749310617	881.766968548315	2360.198127093785	930.0879415693566	1126.101486612498	1905.700865771826	360.3838012111726	1100.755099171066	1866.071000291812	548.3433736675457	1087.06503487906	1880.882149694622	523.4461414022219	1130.446137995295	1913.999447273822	531.6828458220617	1089.97380210094	2325.777854485752	987.5946433763532	1168.644484000652	1847.901425263918	323.6092392171155	1050.956481831054	1841.183225401211	353.0236253118053	1164.870737108479	2186.670402408528	977.1877617270409	1082.850795879799	1987.265237750507	478.7650106271403	1145.786556420311	1996.825835325751	509.4861854436676	1104.688751645788	2071.138005944572	476.6644640864565	1160.139954456297	2076.187011862153	511.4503635022538	1120.264219449909	2312.428737099794	544.5868250931113	1185.630897377903	2258.068697206863	537.623219384995	1136.739700865367	2286.382121840768	650.3148227035175	1196.944115135101	2233.255424878373	644.6817967904326	1153.390422459996	
